<svg width="100%" height="100%" viewBox="0 0 33 28" fill="none" xmlns="http://www.w3.org/2000/svg">
<path d="M15.7949 17.2149L10.7949 12.2149C10.7017 12.1217 10.6277 12.011 10.5773 11.8892C10.5268 11.7674 10.5009 11.6368 10.5009 11.5049C10.5009 11.2386 10.6066 10.9832 10.7949 10.7949C10.8882 10.7017 10.9989 10.6277 11.1207 10.5773C11.2425 10.5268 11.3731 10.5009 11.5049 10.5009C11.7712 10.5009 12.0266 10.6066 12.2149 10.7949L16.5049 15.0949L20.7949 10.7949C20.8879 10.7012 20.9985 10.6268 21.1204 10.5761C21.2422 10.5253 21.3729 10.4991 21.5049 10.4991C21.637 10.4991 21.7677 10.5253 21.8895 10.5761C22.0114 10.6268 22.122 10.7012 22.2149 10.7949C22.3087 10.8879 22.3831 10.9985 22.4338 11.1204C22.4846 11.2422 22.5107 11.3729 22.5107 11.5049C22.5107 11.637 22.4846 11.7677 22.4338 11.8895C22.3831 12.0114 22.3087 12.122 22.2149 12.2149L17.2149 17.2149C17.122 17.3087 17.0114 17.3831 16.8895 17.4338C16.7677 17.4846 16.637 17.5107 16.5049 17.5107C16.3729 17.5107 16.2422 17.4846 16.1204 17.4338C15.9985 17.3831 15.8879 17.3087 15.7949 17.2149Z" fill="currentColor"/>
</svg>
