<svg width="100%" height="100%" viewBox="0 0 17 17" fill="none" xmlns="http://www.w3.org/2000/svg">
<g clip-path="url(#clip0_127_9196)">
<path d="M9.13829 2.92407C9.01327 2.79909 8.84373 2.72888 8.66696 2.72888C8.49018 2.72888 8.32064 2.79909 8.19562 2.92407L4.42429 6.69541C4.36062 6.7569 4.30983 6.83047 4.27489 6.9118C4.23995 6.99314 4.22156 7.08062 4.22079 7.16914C4.22002 7.25766 4.23689 7.34544 4.27041 7.42738C4.30393 7.50931 4.35343 7.58374 4.41603 7.64634C4.47862 7.70893 4.55306 7.75843 4.63499 7.79195C4.71692 7.82547 4.8047 7.84234 4.89322 7.84157C4.98174 7.8408 5.06922 7.82241 5.15056 7.78747C5.2319 7.75253 5.30546 7.70175 5.36696 7.63807L8.00029 5.00474V13.8334C8.00029 14.0102 8.07053 14.1798 8.19555 14.3048C8.32058 14.4298 8.49015 14.5001 8.66696 14.5001C8.84377 14.5001 9.01334 14.4298 9.13836 14.3048C9.26339 14.1798 9.33362 14.0102 9.33362 13.8334V5.00474L11.967 7.63807C12.0927 7.75951 12.2611 7.82671 12.4359 7.82519C12.6107 7.82367 12.7779 7.75356 12.9015 7.62995C13.0251 7.50635 13.0952 7.33914 13.0967 7.16434C13.0983 6.98954 13.0311 6.82114 12.9096 6.69541L9.13829 2.92407Z" fill="currentColor"/>
</g>
<defs>
<clipPath id="clip0_127_9196">
<rect width="16" height="16" fill="currentColor" transform="translate(0.666718 0.5)"/>
</clipPath>
</defs>
</svg>
