<svg width="16" height="17" viewBox="0 0 16 17" fill="none" xmlns="http://www.w3.org/2000/svg">
<path fill-rule="evenodd" clip-rule="evenodd" d="M8.00016 1.83334C4.31816 1.83334 1.3335 4.81801 1.3335 8.50001C1.3335 12.182 4.31816 15.1667 8.00016 15.1667C11.6822 15.1667 14.6668 12.182 14.6668 8.50001C14.6668 4.81801 11.6822 1.83334 8.00016 1.83334ZM8.00016 2.50001C8.00016 4.09131 7.36802 5.61743 6.2428 6.74265C5.11759 7.86787 3.59146 8.50001 2.00016 8.50001C3.59146 8.50001 5.11759 9.13215 6.2428 10.2574C7.36802 11.3826 8.00016 12.9087 8.00016 14.5C8.00016 12.9087 8.6323 11.3826 9.75752 10.2574C10.8827 9.13215 12.4089 8.50001 14.0002 8.50001C12.4089 8.50001 10.8827 7.86787 9.75752 6.74265C8.6323 5.61743 8.00016 4.09131 8.00016 2.50001Z" fill="#EFB8C8"/>
</svg>
