<svg width="100%" height="100%" viewBox="0 0 17 17" fill="none" xmlns="http://www.w3.org/2000/svg">
<path d="M1.6665 1.83331H2.82651C3.54651 1.83331 4.11317 2.45331 4.05317 3.16665L3.49984 9.80664C3.4065 10.8933 4.2665 11.8266 5.35983 11.8266H12.4598C13.4198 11.8266 14.2598 11.04 14.3332 10.0866L14.6932 5.08665C14.7732 3.97998 13.9332 3.07998 12.8198 3.07998H4.21318" stroke="currentColor" stroke-miterlimit="10" stroke-linecap="round" stroke-linejoin="round"/>
<path d="M11.1666 15.1667C11.6268 15.1667 11.9999 14.7936 11.9999 14.3333C11.9999 13.8731 11.6268 13.5 11.1666 13.5C10.7063 13.5 10.3333 13.8731 10.3333 14.3333C10.3333 14.7936 10.7063 15.1667 11.1666 15.1667Z" stroke="currentColor" stroke-miterlimit="10" stroke-linecap="round" stroke-linejoin="round"/>
<path d="M5.83333 15.1667C6.29357 15.1667 6.66667 14.7936 6.66667 14.3333C6.66667 13.8731 6.29357 13.5 5.83333 13.5C5.3731 13.5 5 13.8731 5 14.3333C5 14.7936 5.3731 15.1667 5.83333 15.1667Z" stroke="currentColor" stroke-miterlimit="10" stroke-linecap="round" stroke-linejoin="round"/>
<path d="M6.33325 5.83331H14.3333" stroke="currentColor" stroke-miterlimit="10" stroke-linecap="round" stroke-linejoin="round"/>
</svg>
