<svg width="100%" height="100%" viewBox="0 0 17 17" fill="none" xmlns="http://www.w3.org/2000/svg">
<path d="M5.49967 7.5C7.34062 7.5 8.833 6.75381 8.833 5.83334C8.833 4.91286 7.34062 4.16667 5.49967 4.16667C3.65872 4.16667 2.16634 4.91286 2.16634 5.83334C2.16634 6.75381 3.65872 7.5 5.49967 7.5Z" stroke="currentColor" stroke-width="0.8" stroke-linecap="round" stroke-linejoin="round"/>
<path d="M12.1667 10.1667C14.0076 10.1667 15.5 9.42048 15.5 8.50001C15.5 7.57954 14.0076 6.83334 12.1667 6.83334C10.3257 6.83334 8.83333 7.57954 8.83333 8.50001C8.83333 9.42048 10.3257 10.1667 12.1667 10.1667Z" stroke="currentColor" stroke-width="0.8" stroke-linecap="round" stroke-linejoin="round"/>
<path d="M2.16641 6.16667C2.16641 6.16667 2.16641 7.57954 2.16641 8.50001C2.16641 9.42047 3.6588 10.1667 5.49975 10.1667C7.34068 10.1667 8.83308 9.42047 8.83308 8.50001C8.83308 7.95481 8.83308 6.16667 8.83308 6.16667" stroke="currentColor" stroke-width="0.8" stroke-linecap="round" stroke-linejoin="round"/>
<path d="M2.16641 8.5C2.16641 8.5 2.16641 9.91287 2.16641 10.8333C2.16641 11.7538 3.6588 12.5 5.49975 12.5C7.34068 12.5 8.83308 11.7538 8.83308 10.8333C8.83308 10.2881 8.83308 8.5 8.83308 8.5" stroke="currentColor" stroke-width="0.8" stroke-linecap="round" stroke-linejoin="round"/>
<path d="M2.16641 10.8333C2.16641 10.8333 2.16641 12.2462 2.16641 13.1667C2.16641 14.0871 3.6588 14.8333 5.49975 14.8333C7.34068 14.8333 8.83308 14.0871 8.83308 13.1667C8.83308 12.6215 8.83308 10.8333 8.83308 10.8333" stroke="currentColor" stroke-width="0.8" stroke-linecap="round" stroke-linejoin="round"/>
<path d="M8.83333 8.5C8.83333 8.5 8.83333 9.91287 8.83333 10.8333C8.83333 11.7538 10.3257 12.5 12.1667 12.5C14.0076 12.5 15.5 11.7538 15.5 10.8333C15.5 10.2881 15.5 8.5 15.5 8.5" stroke="currentColor" stroke-width="0.8" stroke-linecap="round" stroke-linejoin="round"/>
<path d="M8.83333 10.8333C8.83333 10.8333 8.83333 12.2462 8.83333 13.1667C8.83333 14.0871 10.3257 14.8333 12.1667 14.8333C14.0076 14.8333 15.5 14.0871 15.5 13.1667C15.5 12.6215 15.5 10.8333 15.5 10.8333" stroke="currentColor" stroke-width="0.8" stroke-linecap="round" stroke-linejoin="round"/>
</svg>
